<svg xmlns="http://www.w3.org/2000/svg" viewBox="0 0 122.3 130.59"><defs><style>.cls-1{fill:#fff;}</style></defs><g id="Capa_2" data-name="Capa 2"><g id="Capa_1-2" data-name="Capa 1"><path class="cls-1" d="M104.38,18.26c2.21,2.32,2.18,3.32-.27,5.31Q99,27.74,93.81,31.83c-1.54,1.22-3.26,3.18-5.14.93-2-2.44.46-3.73,2-5,3.76-3.2,7.6-6.32,11.41-9.47Z"/><path class="cls-1" d="M59.6,0c3.21,0,3.92.66,3.72,3.81C63,8.2,62.7,12.59,62.36,17c-.16,2,.11,4.56-2.81,4.4-3.17-.17-2.43-2.88-2.34-4.89.22-4.94.54-9.87.83-14.8Z"/><path class="cls-1" d="M20.81,18.26c3.79,3.13,7.61,6.21,11.36,9.4,1.5,1.28,4.06,2.54,2.13,5S30.6,33,29,31.75q-5.16-4.08-10.24-8.23c-2.47-2-2.49-2.92-.26-5.26Z"/><path class="cls-1" d="M19.77,61.91C14.88,62.42,10,63,5.1,63.41c-2,.17-4.66,1.11-5.06-2s2.35-2.88,4.36-3.13q6.53-.81,13.05-1.52c3.18-.34,3.83.27,3.93,3.5Z"/><path class="cls-1" d="M120.35,63.26c-4.91-.23-9.82-.41-14.73-.72-2-.13-4.77.4-4.7-2.72s2.75-2.5,4.78-2.45q6.57.18,13.13.46c3.2.14,3.75.84,3.36,4.05Z"/><path class="cls-1" d="M74.08,112.46H48.77c-.24-3-.28-5.85-.74-8.65A34.7,34.7,0,0,0,37.82,84.67,33.53,33.53,0,1,1,95,60.91c-.1,8.9-3,16.82-9.27,23.06C78.1,91.45,74,100.16,74.33,110.84A10.6,10.6,0,0,1,74.08,112.46ZM35.49,53.52c.57.56,1.37,2,2.16,2a4.2,4.2,0,0,0,3-1.85c1.69-2.71,2.67-6,4.68-8.37,1.82-2.19,4.74-3.44,6.95-5.37.82-.71,1-2.17,1.43-3.28-1.21-.43-2.53-1.37-3.61-1.15a12,12,0,0,0-4.24,2.29A25.72,25.72,0,0,0,35.49,53.52ZM69.08,101h0c0-1.33.32-2.78-.1-4a4.06,4.06,0,0,0-2.48-2.42c-.66-.13-2.25,1.31-2.35,2.17a36.62,36.62,0,0,0,.06,8.24,3.24,3.24,0,0,0,2.38,2.11c.83,0,2-1.24,2.36-2.19C69.39,103.79,69.08,102.36,69.08,101Zm-15.28-.26c0,1.43-.3,3,.11,4.24a3.64,3.64,0,0,0,2.38,2.17,3,3,0,0,0,2.3-1.85,48,48,0,0,0,0-8.81,3,3,0,0,0-2.31-1.88,3.7,3.7,0,0,0-2.4,2.18C53.5,98,53.81,99.44,53.8,100.77Zm5.06-18c0-1.75-.14-3.72-2.62-3.73-2.31,0-2.54,1.87-2.54,3.69s.14,3.93,2.62,3.91C58.53,86.64,59,84.86,58.86,82.8ZM64,82.61c-.09,2.18.26,4.09,2.66,4.06s2.5-1.93,2.5-3.74-.09-3.73-2.38-3.85S63.93,80.81,64,82.61Z"/><path class="cls-1" d="M74.26,117.89c0,2.76.15,5.43,0,8.07a4.77,4.77,0,0,1-5,4.56q-7.76.14-15.51,0c-3-.05-4.76-1.8-5.11-4.75-.08-.76-.07-1.53-.08-2.29,0-1.81,0-3.61,0-5.59Z"/></g></g></svg>